HIERARCHY
ROOT hip
{
  OFFSET 0 0 0
  CHANNELS 6 Xposition Yposition Zposition Zrotation Yrotation Xrotation
  JOINT abdomen
  {
    OFFSET 0 20.6881 -0.73152
    CHANNELS 3 Zrotation Xrotation Yrotation
    JOINT chest
    {
      OFFSET 0 11.7043 -0.48768
      CHANNELS 3 Zrotation Xrotation Yrotation
      JOINT neck
      {
        OFFSET 0 22.1894 -2.19456
        CHANNELS 3 Zrotation Xrotation Yrotation
        JOINT head
        {
          OFFSET -0.24384 7.07133 1.2192
          CHANNELS 3 Zrotation Xrotation Yrotation
          JOINT leftEye
          {
            OFFSET 4.14528 8.04674 8.04672
            CHANNELS 3 Zrotation Xrotation Yrotation
            End Site
            {
              OFFSET 1 0 0
            }
          }
          JOINT rightEye
          {
            OFFSET -3.6576 8.04674 8.04672
            CHANNELS 3 Zrotation Xrotation Yrotation
            End Site
            {
              OFFSET 1 0 0
            }
          }
        }
      }
      JOINT rCollar
      {
        OFFSET -2.68224 19.2634 -4.8768
        CHANNELS 3 Zrotation Xrotation Yrotation
        JOINT rShldr
        {
          OFFSET -8.77824 -1.95073 1.46304
          CHANNELS 3 Zrotation Xrotation Yrotation
          JOINT rForeArm
          {
            OFFSET -28.1742 -1.7115 0.48768
            CHANNELS 3 Zrotation Xrotation Yrotation
            JOINT rHand
            {
              OFFSET -22.5879 0.773209 7.07136
              CHANNELS 3 Zrotation Xrotation Yrotation
              JOINT rThumb1
              {
                OFFSET -1.2192 -0.487915 3.41376
                CHANNELS 3 Zrotation Xrotation Yrotation
                JOINT rThumb2
                {
                  OFFSET -3.37035 -0.52449 3.41376
                  CHANNELS 3 Zrotation Xrotation Yrotation
                  End Site
                  {
                    OFFSET -1.78271 -1.18214 1.43049
                  }
                }
              }
              JOINT rIndex1
              {
                OFFSET -7.75947 0.938293 5.60832
                CHANNELS 3 Zrotation Xrotation Yrotation
                JOINT rIndex2
                {
                  OFFSET -2.54057 -0.884171 1.56538
                  CHANNELS 3 Zrotation Xrotation Yrotation
                  End Site
                  {
                    OFFSET -1.62519 -0.234802 1.16502
                  }
                }
              }
              JOINT rMid1
              {
                OFFSET -8.24714 1.18213 3.41376
                CHANNELS 3 Zrotation Xrotation Yrotation
                JOINT rMid2
                {
                  OFFSET -3.10165 -0.590103 1.0647
                  CHANNELS 3 Zrotation Xrotation Yrotation
                  End Site
                  {
                    OFFSET -2.48547 -0.328903 0.83742
                  }
                }
              }
              JOINT rRing1
              {
                OFFSET -8.82822 0.546677 1.51678
                CHANNELS 3 Zrotation Xrotation Yrotation
                JOINT rRing2
                {
                  OFFSET -2.60934 -0.819778 -0.0198488
                  CHANNELS 3 Zrotation Xrotation Yrotation
                  End Site
                  {
                    OFFSET -2.33842 -0.294052 0.168128
                  }
                }
              }
              JOINT rPinky1
              {
                OFFSET -8.27202 -0.0477905 -0.4584
                CHANNELS 3 Zrotation Xrotation Yrotation
                JOINT rPinky2
                {
                  OFFSET -1.82734 -0.647385 -0.700984
                  CHANNELS 3 Zrotation Xrotation Yrotation
                  End Site
                  {
                    OFFSET -1.69225 -0.51767 -0.607171
                  }
                }
              }
            }
          }
        }
      }
      JOINT lCollar
      {
        OFFSET 2.68224 19.2634 -4.8768
        CHANNELS 3 Zrotation Xrotation Yrotation
        JOINT lShldr
        {
          OFFSET 8.77824 -1.95073 1.46304
          CHANNELS 3 Zrotation Xrotation Yrotation
          JOINT lForeArm
          {
            OFFSET 28.1742 -1.7115 0.48768
            CHANNELS 3 Zrotation Xrotation Yrotation
            JOINT lHand
            {
              OFFSET 22.5879 0.773209 7.07136
              CHANNELS 3 Zrotation Xrotation Yrotation
              JOINT lThumb1
              {
                OFFSET 1.2192 -0.487915 3.41376
                CHANNELS 3 Zrotation Xrotation Yrotation
                JOINT lThumb2
                {
                  OFFSET 3.37035 -0.52449 3.41376
                  CHANNELS 3 Zrotation Xrotation Yrotation
                  End Site
                  {
                    OFFSET 1.78271 -1.18214 1.43049
                  }
                }
              }
              JOINT lIndex1
              {
                OFFSET 7.75947 0.938293 5.60832
                CHANNELS 3 Zrotation Xrotation Yrotation
                JOINT lIndex2
                {
                  OFFSET 2.54057 -0.884171 1.56538
                  CHANNELS 3 Zrotation Xrotation Yrotation
                  End Site
                  {
                    OFFSET 1.62519 -0.234802 1.16502
                  }
                }
              }
              JOINT lMid1
              {
                OFFSET 8.24714 1.18213 3.41376
                CHANNELS 3 Zrotation Xrotation Yrotation
                JOINT lMid2
                {
                  OFFSET 3.10165 -0.590103 1.0647
                  CHANNELS 3 Zrotation Xrotation Yrotation
                  End Site
                  {
                    OFFSET 2.48547 -0.328903 0.83742
                  }
                }
              }
              JOINT lRing1
              {
                OFFSET 8.82822 0.546677 1.51678
                CHANNELS 3 Zrotation Xrotation Yrotation
                JOINT lRing2
                {
                  OFFSET 2.60934 -0.819778 -0.0198488
                  CHANNELS 3 Zrotation Xrotation Yrotation
                  End Site
                  {
                    OFFSET 2.33842 -0.294052 0.168128
                  }
                }
              }
              JOINT lPinky1
              {
                OFFSET 8.27202 -0.0477905 -0.4584
                CHANNELS 3 Zrotation Xrotation Yrotation
                JOINT lPinky2
                {
                  OFFSET 1.82734 -0.647385 -0.700984
                  CHANNELS 3 Zrotation Xrotation Yrotation
                  End Site
                  {
                    OFFSET 1.69225 -0.51767 -0.607171
                  }
                }
              }
            }
          }
        }
      }
    }
  }
  JOINT rButtock
  {
    OFFSET -8.77824 4.35084 1.2192
    CHANNELS 3 Zrotation Xrotation Yrotation
    JOINT rThigh
    {
      OFFSET 0 -1.70687 -2.19456
      CHANNELS 3 Zrotation Xrotation Yrotation
      JOINT rShin
      {
        OFFSET 0 -36.8199 0.73152
        CHANNELS 3 Zrotation Xrotation Yrotation
        JOINT rFoot
        {
          OFFSET 0.73152 -45.1104 -5.12064
          CHANNELS 3 Zrotation Xrotation Yrotation
          End Site
          {
            OFFSET -1.1221 -3.69964 12.103
          }
        }
      }
    }
  }
  JOINT lButtock
  {
    OFFSET 8.77824 4.35084 1.2192
    CHANNELS 3 Zrotation Xrotation Yrotation
    JOINT lThigh
    {
      OFFSET 0 -1.70687 -2.19456
      CHANNELS 3 Zrotation Xrotation Yrotation
      JOINT lShin
      {
        OFFSET 0 -36.8199 0.73152
        CHANNELS 3 Zrotation Xrotation Yrotation
        JOINT lFoot
        {
          OFFSET -0.73152 -45.1104 -5.12064
          CHANNELS 3 Zrotation Xrotation Yrotation
          End Site
          {
            OFFSET 1.1221 -3.69964 12.103
          }
        }
      }
    }
  }
}
MOTION
Frames:	5
Frame Time:	0.03333
3.9103399740270106 56.76800012588501 66.68519991799258 -3.08600115776062 48.77299499511719 -2.2079882621765137 -2.279958724975586 12.822281837463379 -4.609044075012207 7.306813716888428 -10.719799995422363 -0.5855048298835754 -8.917542457580566 20.319793701171875 -14.354804039001465 11.623794555664062 -27.991605758666992 -25.894004821777344 -0.0 0.0 -0.0 -0.0 0.0 -0.0 -0.0 -0.0 -0.0 55.92208480834961 0.17390283942222595 28.669599533081055 -27.500905990600586 -28.183883666992188 64.35649871826172 -0.7950019836425781 24.248842239379883 3.632864236831665 -0.0 0.0 -0.0 -0.0 0.0 -0.0 -0.0 0.0 -0.0 7.730902194976807 5.47491455078125 0.4173222780227661 -0.0 0.0 -0.0 2.905566453933716 0.9650754332542419 0.10300818830728531 -0.0 0.0 -0.0 10.278596878051758 0.7318810820579529 0.026273518800735474 -0.0 0.0 -0.0 2.221662998199463 -0.7334509491920471 -0.20832103490829468 -0.0 -0.0 -0.0 -66.86691284179688 81.2396240234375 -10.66942024230957 28.028501510620117 -40.26499557495117 -84.39419555664062 28.117868423461914 -76.3429946899414 35.3389778137207 0.0 0.0 -0.0 0.0 0.0 -0.0 0.0 0.0 -0.0 -7.730902194976807 5.47491455078125 -0.4173222780227661 0.0 0.0 -0.0 -2.905566453933716 0.9650754332542419 -0.10300818830728531 0.0 0.0 -0.0 -10.278596878051758 0.7318810820579529 -0.026273518800735474 0.0 0.0 -0.0 -2.221662998199463 -0.7334509491920471 0.20832103490829468 -0.0 0.0 -0.0 -50.41870880126953 -46.3994026184082 -54.32870864868164 -1.1997628211975098 60.61320114135742 1.227203369140625 -0.352922648191452 6.5411376953125 6.76976203918457 0.0 0.0 0.0 29.861309051513672 -26.85799789428711 32.54719924926758 2.957867383956909 78.843994140625 -5.953341007232666 12.32369613647461 -27.123905181884766 25.94269371032715
3.905899974051863 56.81660175323486 66.75919991685078 -2.8263514041900635 48.941497802734375 -1.900679588317871 -2.6175930500030518 12.807412147521973 -4.535840034484863 7.449661731719971 -10.73071002960205 -0.5622151494026184 -8.898222923278809 20.45528793334961 -14.490803718566895 11.763298988342285 -28.210800170898438 -26.12799644470215 -0.0 0.0 -0.0 -0.0 0.0 -0.0 -0.0 -0.0 -0.0 56.12340545654297 -0.17023932933807373 28.387495040893555 -27.518497467041016 -28.25680160522461 64.47270965576172 -0.7700640559196472 24.105697631835938 3.605369806289673 -0.0 0.0 -0.0 -0.0 0.0 -0.0 -0.0 0.0 -0.0 7.730902194976807 5.47491455078125 0.4173222780227661 -0.0 0.0 -0.0 2.905566453933716 0.9650754332542419 0.10300818830728531 -0.0 0.0 -0.0 10.278596878051758 0.7318810820579529 0.026273518800735474 -0.0 0.0 -0.0 2.221662998199463 -0.7334509491920471 -0.20832103490829468 -0.0 -0.0 -0.0 -67.2824935913086 81.13968658447266 -10.222987174987793 28.025894165039062 -40.26970291137695 -84.41289520263672 28.45131492614746 -76.4689712524414 35.69163131713867 -0.0 0.0 -0.0 -0.0 0.0 -0.0 -0.0 0.0 -0.0 -7.730902194976807 5.47491455078125 -0.4173222780227661 -0.0 0.0 -0.0 -2.905566453933716 0.9650754332542419 -0.10300818830728531 -0.0 0.0 -0.0 -10.278596878051758 0.7318810820579529 -0.026273518800735474 -0.0 0.0 -0.0 -2.221662998199463 -0.7334509491920471 0.20832103490829468 -0.0 0.0 -0.0 -50.83599853515625 -46.25529861450195 -54.72480392456055 -1.2016340494155884 60.66839599609375 1.2339447736740112 -0.348955899477005 6.433652877807617 6.906814098358154 0.0 0.0 0.0 29.82920265197754 -26.725494384765625 32.71929931640625 2.867469310760498 78.56159973144531 -5.849954128265381 12.123307228088379 -26.963407516479492 25.71699333190918
3.9028699740811135 56.86129927635193 66.82599991909228 -2.6647841930389404 49.140296936035156 -1.6452596187591553 -2.814539909362793 12.727299690246582 -4.517997741699219 7.538425445556641 -10.699313163757324 -0.5576867461204529 -8.867142677307129 20.56049919128418 -14.614997863769531 11.802806854248047 -28.411495208740234 -26.359891891479492 -0.0 0.0 -0.0 -0.0 0.0 -0.0 0.0 0.0 0.0 56.325199127197266 -0.5088258385658264 28.150909423828125 -27.52730369567871 -28.293498992919922 64.53070068359375 -0.7647842764854431 24.029001235961914 3.592430591583252 -0.0 -0.0 -0.0 -0.0 -0.0 -0.0 -0.0 -0.0 -0.0 7.730902194976807 5.47491455078125 0.4173222780227661 -0.0 -0.0 -0.0 2.905566453933716 0.9650754332542419 0.10300818830728531 -0.0 -0.0 -0.0 10.278596878051758 0.7318810820579529 0.026273518800735474 -0.0 -0.0 -0.0 2.221662998199463 -0.7334509491920471 -0.20832103490829468 0.0 0.0 0.0 -67.87069702148438 81.11261749267578 -9.611162185668945 28.025392532348633 -40.27179718017578 -84.41779327392578 28.97690773010254 -76.60594940185547 36.21282196044922 -0.0 0.0 -0.0 -0.0 0.0 -0.0 -0.0 0.0 -0.0 -7.730902194976807 5.47491455078125 -0.4173222780227661 -0.0 0.0 -0.0 -2.905566453933716 0.9650754332542419 -0.10300818830728531 -0.0 0.0 -0.0 -10.278596878051758 0.7318810820579529 -0.026273518800735474 -0.0 0.0 -0.0 -2.221662998199463 -0.7334509491920471 0.20832103490829468 -0.0 0.0 -0.0 -51.24659729003906 -46.05070114135742 -55.266395568847656 -1.2044004201889038 60.71250534057617 1.2392675876617432 -0.3496292531490326 6.351921558380127 7.091917991638184 0.0 0.0 0.0 29.881793975830078 -26.662097930908203 32.88199996948242 2.7936675548553467 78.31916809082031 -5.7649102210998535 11.941186904907227 -26.7738037109375 25.53789520263672
3.899649973936903 56.90410137176514 66.88609991688281 -2.5817837715148926 49.35790252685547 -1.4343668222427368 -2.9238202571868896 12.614115715026855 -4.527063846588135 7.591265678405762 -10.65408706665039 -0.5619129538536072 -8.833788871765137 20.648006439208984 -14.722095489501953 11.79210376739502 -28.587596893310547 -26.5697021484375 -0.0 0.0 -0.0 -0.0 0.0 -0.0 -0.0 0.0 0.0 56.51839828491211 -0.8262653946876526 27.9490966796875 -27.531108856201172 -28.309497833251953 64.55569458007812 -0.760570764541626 23.967697143554688 3.5820555686950684 -0.0 -0.0 -0.0 -0.0 -0.0 -0.0 -0.0 -0.0 -0.0 7.730902194976807 5.47491455078125 0.4173222780227661 -0.0 -0.0 -0.0 2.905566453933716 0.9650754332542419 0.10300818830728531 -0.0 -0.0 -0.0 10.278596878051758 0.7318810820579529 0.026273518800735474 -0.0 -0.0 -0.0 2.221662998199463 -0.7334509491920471 -0.20832103490829468 -0.0 0.0 0.0 -68.4778060913086 81.13290405273438 -8.984108924865723 28.026094436645508 -40.27119827270508 -84.4135971069336 29.339893341064453 -76.73507690429688 36.595462799072266 -0.0 0.0 -0.0 -0.0 0.0 -0.0 -0.0 0.0 -0.0 -7.730902194976807 5.47491455078125 -0.4173222780227661 -0.0 0.0 -0.0 -2.905566453933716 0.9650754332542419 -0.10300818830728531 -0.0 0.0 -0.0 -10.278596878051758 0.7318810820579529 -0.026273518800735474 -0.0 0.0 -0.0 -2.221662998199463 -0.7334509491920471 0.20832103490829468 -0.0 0.0 -0.0 -51.62880325317383 -45.827598571777344 -55.85279846191406 -1.2070647478103638 60.750301361083984 1.2431867122650146 -0.3538910746574402 6.286230087280273 7.28264856338501 0.0 0.0 0.0 29.989601135253906 -26.631498336791992 33.052207946777344 2.7325973510742188 78.10929870605469 -5.693240165710449 11.768391609191895 -26.589008331298828 25.368200302124023
3.895939974063367 56.94069862365723 66.94129991810769 -2.5524981021881104 49.56650161743164 -1.258527159690857 -2.9494693279266357 12.474397659301758 -4.5607733726501465 7.608392715454102 -10.611693382263184 -0.573453426361084 -8.806017875671387 20.722482681274414 -14.798699378967285 11.761297225952148 -28.698192596435547 -26.72649574279785 -0.0 0.0 -0.0 -0.0 0.0 -0.0 -0.0 0.0 0.0 56.7007942199707 -1.106882929801941 27.80280113220215 -27.527793884277344 -28.295703887939453 64.5343017578125 -0.7382467985153198 23.860336303710938 3.5607166290283203 -0.0 -0.0 -0.0 -0.0 -0.0 -0.0 -0.0 -0.0 -0.0 7.730902194976807 5.47491455078125 0.4173222780227661 -0.0 -0.0 -0.0 2.905566453933716 0.9650754332542419 0.10300818830728531 -0.0 -0.0 -0.0 10.278596878051758 0.7318810820579529 0.026273518800735474 -0.0 -0.0 -0.0 2.221662998199463 -0.7334509491920471 -0.20832103490829468 -0.0 0.0 0.0 -68.92843627929688 81.21320343017578 -8.519344329833984 28.02839469909668 -40.26410675048828 -84.39440155029297 29.565237045288086 -76.8042984008789 36.826927185058594 -0.0 -0.0 -0.0 -0.0 -0.0 -0.0 -0.0 -0.0 -0.0 -7.730902194976807 5.47491455078125 -0.4173222780227661 -0.0 -0.0 -0.0 -2.905566453933716 0.9650754332542419 -0.10300818830728531 -0.0 -0.0 -0.0 -10.278596878051758 0.7318810820579529 -0.026273518800735474 -0.0 -0.0 -0.0 -2.221662998199463 -0.7334509491920471 0.20832103490829468 -0.0 0.0 -0.0 -51.96450424194336 -45.6161994934082 -56.42860794067383 -1.2099876403808594 60.79280471801758 1.2462329864501953 -0.35994648933410645 6.228294372558594 7.421565532684326 0.0 0.0 0.0 30.133808135986328 -26.62689781188965 33.22530746459961 2.6840996742248535 77.93400573730469 -5.634375095367432 11.608012199401855 -26.432493209838867 25.197799682617188
